<?xml version="1.0" standalone="no"?>
<!DOCTYPE svg PUBLIC "-//W3C//DTD SVG 20010904//EN"
 "http://www.w3.org/TR/2001/REC-SVG-20010904/DTD/svg10.dtd">
<svg version="1.0" xmlns="http://www.w3.org/2000/svg"
 width="192.000000pt" height="192.000000pt" viewBox="0 0 192.000000 192.000000"
 preserveAspectRatio="xMidYMid meet">
<metadata>
Created by potrace 1.11, written by Peter Selinger 2001-2013
</metadata>
<g transform="translate(0.000000,192.000000) scale(0.100000,-0.100000)"
fill="#000000" stroke="none">
<path d="M650 1485 c-227 -227 -309 -315 -295 -316 11 -1 46 -1 77 0 55 2 59
1 101 -41 85 -86 85 -198 -1 -291 l-26 -27 39 -40 c49 -51 24 -55 -29 -5 -23
21 -48 35 -64 36 -117 2 -163 2 -167 -2 -2 -3 150 -159 339 -348 l343 -343
312 311 311 311 -92 1 c-51 1 -103 0 -115 -1 -26 -2 -24 -24 -25 250 l-1 185
122 0 c66 0 121 1 121 2 0 2 -632 633 -634 633 -1 0 -143 -142 -316 -315z
m357 127 c0 -10 -6 -19 -13 -19 -9 0 -9 5 -1 19 7 10 13 18 14 18 1 0 1 -8 0
-18z m-77 -5 c0 -8 -7 -14 -15 -14 -11 0 -12 4 -4 14 6 7 13 13 15 13 2 0 4
-6 4 -13z m17 -99 c-3 -7 -5 -2 -5 12 0 14 2 19 5 13 2 -7 2 -19 0 -25z m50 7
c0 -8 -4 -12 -9 -9 -5 3 -6 10 -3 15 9 13 12 11 12 -6z m36 -330 c21 -38 57
-104 79 -145 23 -41 70 -126 105 -188 36 -63 62 -116 59 -119 -12 -13 -35 9
-66 64 -54 94 -159 285 -214 388 -6 11 -15 26 -20 33 -6 10 -29 -22 -78 -110
-76 -134 -88 -153 -150 -261 -22 -40 -46 -82 -52 -94 -6 -13 -19 -23 -28 -23
-10 0 -18 1 -18 3 0 3 195 346 277 485 36 62 58 55 106 -33z"/>
<path d="M312 1138 c-9 -3 -38 -28 -63 -55 l-46 -48 2 -83 c2 -118 11 -126
152 -128 127 -2 151 7 188 69 46 80 22 199 -49 237 -27 14 -154 20 -184 8z"/>
<path d="M1386 1141 c-2 -3 -3 -91 -2 -196 l1 -189 109 -1 c116 -1 120 1 187
65 77 74 77 183 1 263 -47 50 -78 60 -190 62 -56 1 -104 -1 -106 -4z"/>
<path d="M147 982 l-27 -28 30 -29 30 -29 0 57 c0 31 -1 57 -3 57 -2 0 -15
-13 -30 -28z"/>
<path d="M1763 955 c0 -25 1 -45 3 -45 2 0 12 10 23 21 18 20 19 23 4 45 -22
35 -30 30 -30 -21z"/>
</g>
</svg>
